<svg xmlns="http://www.w3.org/2000/svg" width="286" height="27" viewBox="0 0 286 27"><title>
        Logo Royal Nedschroef
    </title><path fill="#ed8b00" fill-rule="evenodd" d="M15.1 5.1L13 3.4l-2 1.7 2 1.7 2.1-1.7" clip-rule="evenodd"/><path fill="#00263a" d="M4.6 17.2h16.7v-1.4l1.6-4c.1-.1.5-1.3-.1-2.3-.3-.5-.9-.9-1.7-1.1-.5-.1-1.1-.2-1.6-.2.2.5.2 1 .1 1.5.4 0 .7 0 1.1.1.4.1.5.2.6.3.2.4.1.9 0 1.1l-1.7 4.3h-3.4l1.2-3c.8-2.1 1.5-3.9.2-5.3-.5-.5-1.1-.9-1.7-1.2l-1.4 1.2c.1 0 .9.2 1.7 1 .7.7.1 2.2-.5 3.9l-.2.4-1.3 3h-2.3l-1.3-3-.2-.4c-.7-1.7-1.2-3.1-.6-3.9.8-.8 1.6-1 1.7-1L10.1 6c-.6.5-1.2.9-1.7 1.4-1.3 1.4-.6 3.2.3 5.3l1.2 3H6.5l-1.7-4.3c-.1-.2-.2-.8 0-1.1 0-.1.2-.3.5-.4.4-.1.7-.1 1.1-.1 0-.5 0-1 .1-1.5-.6 0-1.1 0-1.6.2-.8.1-1.4.5-1.7 1-.6 1-.2 2.2-.1 2.3l1.6 3.9-.1 1.5"/><path fill="#00263a" d="M.9 1H25v24.1H8.2c-4 0-7.3-3.3-7.3-7.3V1zm7.3 25.1H26V.1H0v17.8c0 4.5 3.7 8.2 8.2 8.2zm158.2-10.5h12.2V26h5.4V0h-5.4v10.8h-12.2V0H161v26h5.4V15.6M65.1 26.1h15.7v-4.7H65.6c-1 0-2-.8-2.1-1.9v-3.9H80v-4.7H63.6V4.7h17.2V0H58.2v19.5c.2 3.5 3.2 6.6 6.9 6.6m179.8 0h15.9v-4.7h-15.3c-1 0-2-.8-2.1-1.9v-3.9h16.4v-4.7h-16.4V4.7h17.1V0H238v19.5c.3 3.5 3.3 6.6 6.9 6.6m-102.3 0h15.6v-4.7H143c-.9-.1-1.8-.8-1.9-1.9v-13c.1-1.1 1-1.7 2-1.8h15.1V0h-15.6c-3.6 0-6.6 3-6.9 6.6v12.9c.3 3.5 3.3 6.6 6.9 6.6m120.7 0h5.4V15.6h10.6c2.8 0 5.4-2.1 6.1-4.7h-16.6V6.6c.1-1.1 1.1-1.9 2.1-1.9H286V0h-15.7c-3.6 0-6.6 3-6.9 6.6v10.6l-.1 8.9M88.9 21.4V4.7h11c.9 0 1.9.6 2 1.6v13.3c-.2 1-1.1 1.8-2 1.8h-11zm18.4-2V6.6c-.2-3.6-3.2-6.5-6.9-6.5h-17v26h17c3.7 0 6.7-3.1 6.9-6.7zM216.6 6.6c.1-1.1 1.1-1.8 2.1-1.8h9.3c1 0 2 .7 2.1 1.8v13c-.1 1.1-1.1 1.9-2.1 1.9h-9.3c-1 0-2-.8-2.1-1.9v-13zm1.5 19.5h10.5c3.6 0 6.6-3 6.9-6.6V6.6c-.3-3.6-3.3-6.6-6.9-6.6h-10.5c-3.6 0-6.6 3-6.9 6.6v12.8c.3 3.6 3.3 6.7 6.9 6.7zM192.2 4.7h9.8c.9.1 1.8.7 1.9 1.8V9c-.1 1.1-1.1 1.9-2.1 1.9h-9.6V4.7zm0 10.9h7.8l3.8 10.4h5.7l-4.1-11.2s.1 0 .1-.1l.1-.1c.1-.1.3-.2.4-.2l.1-.1c.2-.1.3-.2.4-.3.1 0 .1-.1.2-.1.1-.1.2-.1.3-.2l.4-.4c1.1-1.2 1.8-2.7 1.9-4.3V6.6c-.2-3.6-3.2-6.6-6.8-6.6h-15.7v26h5.4V15.6zm-75.9 0h9.7c1 0 2 .6 2.1 1.7v2.1c-.1 1.1-1.1 1.9-2.1 1.9h-15.3V26h15.8c3.6 0 6.6-3 6.9-6.6v-2c-.2-3.6-3.2-6.6-6.9-6.6h-9.7c-1 0-2-.7-2.1-1.9V6.4c.1-1.1 1.1-1.7 2.1-1.7h15.1V0h-15.7c-3.6 0-6.6 2.9-6.9 6.5v2.4c.4 3.6 3.4 6.7 7 6.7M37 26.1V4.7h11.2c.8 0 1.7.7 1.7 1.6V26h5.5V7c0-3.8-3.1-7-7-7H31.5v20.1c0 3.1 2.5 5.6 5.5 6"/><path fill="#00263a" d="M4.6 18.3h16.7v1.6H4.6z"/></svg>