<svg width="1205" height="877" viewBox="0 0 1205 877" fill="none" xmlns="http://www.w3.org/2000/svg">
<path opacity="0.5" fill-rule="evenodd" clip-rule="evenodd" d="M532.996 331L561 347.159L497.393 384.094L524.798 399.907L359.08 496.136L331.248 480.076L283.375 507.871L310.787 523.686L145.068 619.899L117.031 603.723L180.645 566.791L161.301 555.63L28.0366 633L0 616.825L63.6139 579.892L36.2018 564.077L69.8817 544.523L49.4954 532.76L113.102 495.825L85.6973 480.012L251.416 383.783L279.436 399.958L215.827 436.885L235.603 448.301L391.38 357.86L419.433 374.035L355.811 410.973L375.612 422.39L532.996 331ZM166.343 520.973L190.092 507.185L209.442 518.342L185.688 532.133L166.343 520.973ZM346.815 470.838L394.682 443.042L374.894 431.623L327.021 459.418L346.815 470.838ZM253.082 469.883L229.326 483.675L209.545 472.263L233.297 458.475L253.082 469.883Z" fill="white"/>
<path fill-rule="evenodd" clip-rule="evenodd" d="M155.952 416L127 399.306L192.761 361.148L164.428 344.812L335.759 245.396L364.533 261.987L414.028 233.272L385.688 216.934L557.019 117.535L586.005 134.246L553.121 153.324L520.236 172.402L540.237 183.932L678.014 104L707 120.711L641.232 158.867L669.572 175.205L634.752 195.407L655.828 207.559L590.067 245.717L618.4 262.054L447.069 361.469L418.1 344.758L483.863 306.609L463.417 294.815L302.365 388.25L273.362 371.54L339.138 333.379L318.667 321.584L155.952 416ZM535.023 219.737L510.47 233.981L490.465 222.454L515.023 208.207L535.023 219.737ZM348.439 271.532L298.951 300.248L319.409 312.045L368.904 283.33L348.439 271.532ZM445.347 272.518L469.907 258.269L490.358 270.059L465.802 284.304L445.347 272.518Z" fill="white"/>
<path opacity="0.5" fill-rule="evenodd" clip-rule="evenodd" d="M968.738 69L992 82.4299L939.165 113.127L961.929 126.27L824.273 206.248L801.155 192.901L761.388 216.002L784.158 229.146L646.502 309.111L623.213 295.668L676.055 264.972L659.986 255.696L549.289 320L526 306.556L578.841 275.86L556.071 262.716L584.048 246.465L567.114 236.688L619.949 205.99L597.185 192.848L734.841 112.869L758.116 126.313L705.279 157.003L721.706 166.492L851.103 91.3241L874.406 104.768L821.558 135.468L838.006 144.957L968.738 69ZM664.174 226.891L683.901 215.432L699.975 224.705L680.244 236.167L664.174 226.891ZM814.085 185.223L853.847 162.121L837.409 152.631L797.643 175.731L814.085 185.223ZM736.225 184.429L716.492 195.892L700.06 186.407L719.79 174.948L736.225 184.429Z" fill="white"/>
<path fill-rule="evenodd" clip-rule="evenodd" d="M1560.73 0L1642 46.9244L1457.42 154.182L1536.94 200.103L1056.03 479.549L975.27 432.914L836.342 513.629L915.891 559.555L434.982 838.954L353.621 791.982L538.226 684.729L482.088 652.319L95.3611 877L13.9999 830.028L198.605 722.776L119.056 676.849L216.794 620.065L157.634 585.905L342.218 478.647L262.69 432.727L743.599 153.281L824.912 200.253L640.321 307.486L697.711 340.639L1149.77 78.001L1231.18 124.973L1046.55 232.239L1104.01 265.394L1560.73 0ZM496.721 551.675L565.638 511.636L621.791 544.037L552.859 584.085L496.721 551.675ZM1020.44 406.086L1159.35 325.367L1101.93 292.208L963.001 372.922L1020.44 406.086ZM748.433 403.313L679.495 443.365L622.09 410.225L691.018 370.184L748.433 403.313Z" fill="white"/>
<path d="M1443 587.5H297L570.5 441L537 335L701 235.5L878.5 335L755 408H861L1204.5 202.5L1443 289.5V587.5Z" fill="white"/>
</svg>
